<svg width="14" height="14" viewBox="0 0 14 14" fill="none" xmlns="http://www.w3.org/2000/svg">
<path fill-rule="evenodd" clip-rule="evenodd" d="M3.06234 5.86519V4.66667C3.06234 2.49205 4.82522 0.729172 6.99984 0.729172C9.17445 0.729172 10.9373 2.49205 10.9373 4.66667V5.86519C11.5876 5.91378 12.0111 6.03634 12.3206 6.34591C12.8332 6.85849 12.8332 7.68344 12.8332 9.33334C12.8332 10.9832 12.8332 11.8082 12.3206 12.3208C11.808 12.8333 10.9831 12.8333 9.33317 12.8333H4.6665C3.01659 12.8333 2.19163 12.8333 1.67907 12.3208C1.1665 11.8082 1.1665 10.9832 1.1665 9.33334C1.1665 7.68344 1.1665 6.85849 1.67907 6.34591C1.9886 6.03634 2.41207 5.91378 3.06234 5.86519ZM3.93734 4.66667C3.93734 2.9753 5.30847 1.60417 6.99984 1.60417C8.69121 1.60417 10.0623 2.9753 10.0623 4.66667V5.83544C9.83892 5.83334 9.59655 5.83334 9.33317 5.83334H4.6665C4.40312 5.83334 4.16076 5.83334 3.93734 5.83544V4.66667ZM6.99984 7.72917C7.24145 7.72917 7.43734 7.92506 7.43734 8.16667V10.5C7.43734 10.7416 7.24145 10.9375 6.99984 10.9375C6.75822 10.9375 6.56234 10.7416 6.56234 10.5V8.16667C6.56234 7.92506 6.75822 7.72917 6.99984 7.72917Z" fill="#707070"/>
</svg>
